<?xml version="1.0" standalone="no"?><!DOCTYPE svg PUBLIC "-//W3C//DTD SVG 1.1//EN" "http://www.w3.org/Graphics/SVG/1.1/DTD/svg11.dtd"><svg t="1554891914029" class="icon" style="" viewBox="0 0 1024 1024" version="1.1" xmlns="http://www.w3.org/2000/svg" p-id="5643" xmlns:xlink="http://www.w3.org/1999/xlink" width="200" height="200"><defs><style type="text/css"></style></defs><path d="M706.637322 177.735053 706.637322 0 147.587657 178.240784l0 0L147.587657 1024l728.824686 0L876.412343 177.735053 706.637322 177.735053zM663.403624 59.174661l0 118.560392L291.5328 177.735053 663.403624 59.174661zM833.176555 980.764212 190.823445 980.764212 190.823445 220.968751l642.3552 0L833.178645 980.764212z" p-id="5644" fill="#dbdbdb"></path><path d="M283.495445 428.74462 315.410808 493.595167 331.201306 493.595167 363.281763 428.74462 363.281763 503.438106 389.765747 503.438106 389.765747 384.766955 354.120098 384.766955 323.38338 449.964408 292.834743 384.766955 257.011461 384.766955 257.011461 503.438106 283.495445 503.438106Z" p-id="5645" fill="#dbdbdb"></path><path d="M506.397257 480.011494 445.456718 480.011494 445.456718 455.393698 498.591869 455.393698 498.591869 432.811363 445.456718 432.811363 445.456718 408.364931 504.533159 408.364931 504.533159 384.766955 418.970645 384.766955 418.970645 503.438106 506.397257 503.438106Z" p-id="5646" fill="#dbdbdb"></path><path d="M556.479216 429.081078 613.012376 503.438106 639.498449 503.438106 639.498449 384.766955 613.012376 384.766955 613.012376 461.167804 554.780212 384.766955 529.995233 384.766955 529.995233 503.438106 556.479216 503.438106Z" p-id="5647" fill="#dbdbdb"></path><path d="M717.915951 504.62511c14.822922 0 26.993894-4.608 36.498286-13.836539 9.504392-9.222269 14.258678-22.436049 14.258678-39.635069l0-66.386547-26.486073 0 0 65.536c0 9.504392-2.169208 17.006759-6.532702 22.490384-4.353045 5.489894-10.265078 8.233796-17.740278 8.233796-7.460571 0-13.403951-2.743902-17.823869-8.233796-4.40529-5.483624-6.616294-12.985992-6.616294-22.490384l0-65.536-26.483984 0 0 66.386547c0 17.088261 4.779363 30.274873 14.34018 39.553567C690.8928 499.983673 703.090939 504.62511 717.915951 504.62511z" p-id="5648" fill="#dbdbdb"></path><path d="M270.041339 596.408947l483.073045 0 0 43.235788-483.073045 0 0-43.235788Z" p-id="5649" fill="#dbdbdb"></path><path d="M270.041339 724.47791l483.073045 0 0 43.235788-483.073045 0 0-43.235788Z" p-id="5650" fill="#dbdbdb"></path><path d="M270.041339 852.546873l483.073045 0 0 43.235788-483.073045 0 0-43.235788Z" p-id="5651" fill="#dbdbdb"></path></svg>